<svg width="16" height="17" viewBox="0 0 16 17" fill="none" xmlns="http://www.w3.org/2000/svg">
<path d="M1.44231 16.1538H9.51922C9.90174 16.1538 10.2686 16.0019 10.5391 15.7314C10.8096 15.4609 10.9615 15.094 10.9615 14.7115V1.44231C10.9615 1.05978 10.8096 0.692927 10.5391 0.422442C10.2686 0.151957 9.90174 0 9.51922 0H1.44231C1.05978 0 0.692927 0.151957 0.422442 0.422442C0.151957 0.692927 0 1.05978 0 1.44231V14.7115C0 15.094 0.151957 15.4609 0.422442 15.7314C0.692927 16.0019 1.05978 16.1538 1.44231 16.1538ZM6.63461 14.4231C6.63461 14.4996 6.60422 14.5729 6.55012 14.627C6.49602 14.6811 6.42265 14.7115 6.34615 14.7115H4.61538C4.53887 14.7115 4.4655 14.6811 4.41141 14.627C4.35731 14.5729 4.32692 14.4996 4.32692 14.4231V13.2692C4.32692 13.1927 4.35731 13.1193 4.41141 13.0652C4.4655 13.0111 4.53887 12.9808 4.61538 12.9808H6.34615C6.42265 12.9808 6.49602 13.0111 6.55012 13.0652C6.60422 13.1193 6.63461 13.1927 6.63461 13.2692V14.4231ZM6.63461 12.1154C6.63461 12.1919 6.60422 12.2652 6.55012 12.3193C6.49602 12.3734 6.42265 12.4038 6.34615 12.4038H4.61538C4.53887 12.4038 4.4655 12.3734 4.41141 12.3193C4.35731 12.2652 4.32692 12.1919 4.32692 12.1154V10.9615C4.32692 10.885 4.35731 10.8117 4.41141 10.7576C4.4655 10.7035 4.53887 10.6731 4.61538 10.6731H6.34615C6.42265 10.6731 6.49602 10.7035 6.55012 10.7576C6.60422 10.8117 6.63461 10.885 6.63461 10.9615V12.1154ZM6.63461 9.80768C6.63461 9.88419 6.60422 9.95756 6.55012 10.0117C6.49602 10.0658 6.42265 10.0961 6.34615 10.0961H4.61538C4.53887 10.0961 4.4655 10.0658 4.41141 10.0117C4.35731 9.95756 4.32692 9.88419 4.32692 9.80768V8.65384C4.32692 8.57733 4.35731 8.50396 4.41141 8.44986C4.4655 8.39577 4.53887 8.36538 4.61538 8.36538H6.34615C6.42265 8.36538 6.49602 8.39577 6.55012 8.44986C6.60422 8.50396 6.63461 8.57733 6.63461 8.65384V9.80768ZM6.63461 7.49999C6.63461 7.5765 6.60422 7.64987 6.55012 7.70397C6.49602 7.75806 6.42265 7.78845 6.34615 7.78845H4.61538C4.53887 7.78845 4.4655 7.75806 4.41141 7.70397C4.35731 7.64987 4.32692 7.5765 4.32692 7.49999V6.34615C4.32692 6.26964 4.35731 6.19627 4.41141 6.14217C4.4655 6.08808 4.53887 6.05769 4.61538 6.05769H6.34615C6.42265 6.05769 6.49602 6.08808 6.55012 6.14217C6.60422 6.19627 6.63461 6.26964 6.63461 6.34615V7.49999ZM9.51922 14.4231C9.51922 14.4996 9.48883 14.5729 9.43473 14.627C9.38064 14.6811 9.30726 14.7115 9.23076 14.7115H7.49999C7.42349 14.7115 7.35012 14.6811 7.29602 14.627C7.24192 14.5729 7.21153 14.4996 7.21153 14.4231V10.9615C7.21153 10.885 7.24192 10.8117 7.29602 10.7576C7.35012 10.7035 7.42349 10.6731 7.49999 10.6731H9.23076C9.30726 10.6731 9.38064 10.7035 9.43473 10.7576C9.48883 10.8117 9.51922 10.885 9.51922 10.9615V14.4231ZM9.51922 9.80768C9.51922 9.88419 9.48883 9.95756 9.43473 10.0117C9.38064 10.0658 9.30726 10.0961 9.23076 10.0961H7.49999C7.42349 10.0961 7.35012 10.0658 7.29602 10.0117C7.24192 9.95756 7.21153 9.88419 7.21153 9.80768V8.65384C7.21153 8.57733 7.24192 8.50396 7.29602 8.44986C7.35012 8.39577 7.42349 8.36538 7.49999 8.36538H9.23076C9.30726 8.36538 9.38064 8.39577 9.43473 8.44986C9.48883 8.50396 9.51922 8.57733 9.51922 8.65384V9.80768ZM9.51922 7.49999C9.51922 7.5765 9.48883 7.64987 9.43473 7.70397C9.38064 7.75806 9.30726 7.78845 9.23076 7.78845H7.49999C7.42349 7.78845 7.35012 7.75806 7.29602 7.70397C7.24192 7.64987 7.21153 7.5765 7.21153 7.49999V6.34615C7.21153 6.26964 7.24192 6.19627 7.29602 6.14217C7.35012 6.08808 7.42349 6.05769 7.49999 6.05769H9.23076C9.30726 6.05769 9.38064 6.08808 9.43473 6.14217C9.48883 6.19627 9.51922 6.26964 9.51922 6.34615V7.49999ZM1.44231 1.44231C1.44231 1.3658 1.4727 1.29243 1.52679 1.23833C1.58089 1.18424 1.65426 1.15384 1.73077 1.15384H9.23076C9.2999 1.15296 9.36706 1.17693 9.42001 1.22141C9.47295 1.26588 9.50816 1.3279 9.51922 1.39615C9.52225 1.41139 9.52225 1.42707 9.51922 1.44231V3.46153C9.51922 3.53804 9.48883 3.61141 9.43473 3.66551C9.38064 3.7196 9.30726 3.75 9.23076 3.75H1.73077C1.65426 3.75 1.58089 3.7196 1.52679 3.66551C1.4727 3.61141 1.44231 3.53804 1.44231 3.46153V1.44231ZM1.44231 6.34615C1.44231 6.26964 1.4727 6.19627 1.52679 6.14217C1.58089 6.08808 1.65426 6.05769 1.73077 6.05769H3.46153C3.53804 6.05769 3.61141 6.08808 3.66551 6.14217C3.7196 6.19627 3.75 6.26964 3.75 6.34615V7.49999C3.75 7.5765 3.7196 7.64987 3.66551 7.70397C3.61141 7.75806 3.53804 7.78845 3.46153 7.78845H1.73077C1.65426 7.78845 1.58089 7.75806 1.52679 7.70397C1.4727 7.64987 1.44231 7.5765 1.44231 7.49999V6.34615ZM1.44231 8.65384C1.44231 8.57733 1.4727 8.50396 1.52679 8.44986C1.58089 8.39577 1.65426 8.36538 1.73077 8.36538H3.46153C3.53804 8.36538 3.61141 8.39577 3.66551 8.44986C3.7196 8.50396 3.75 8.57733 3.75 8.65384V9.80768C3.75 9.88419 3.7196 9.95756 3.66551 10.0117C3.61141 10.0658 3.53804 10.0961 3.46153 10.0961H1.73077C1.65426 10.0961 1.58089 10.0658 1.52679 10.0117C1.4727 9.95756 1.44231 9.88419 1.44231 9.80768V8.65384ZM1.44231 10.9615C1.44231 10.885 1.4727 10.8117 1.52679 10.7576C1.58089 10.7035 1.65426 10.6731 1.73077 10.6731H3.46153C3.53804 10.6731 3.61141 10.7035 3.66551 10.7576C3.7196 10.8117 3.75 10.885 3.75 10.9615V12.1154C3.75 12.1919 3.7196 12.2652 3.66551 12.3193C3.61141 12.3734 3.53804 12.4038 3.46153 12.4038H1.73077C1.65426 12.4038 1.58089 12.3734 1.52679 12.3193C1.4727 12.2652 1.44231 12.1919 1.44231 12.1154V10.9615ZM1.44231 13.2692C1.44231 13.1927 1.4727 13.1193 1.52679 13.0652C1.58089 13.0111 1.65426 12.9808 1.73077 12.9808H3.46153C3.53804 12.9808 3.61141 13.0111 3.66551 13.0652C3.7196 13.1193 3.75 13.1927 3.75 13.2692V14.4231C3.75 14.4996 3.7196 14.5729 3.66551 14.627C3.61141 14.6811 3.53804 14.7115 3.46153 14.7115H1.73077C1.65426 14.7115 1.58089 14.6811 1.52679 14.627C1.4727 14.5729 1.44231 14.4996 1.44231 14.4231V13.2692Z" fill="#BDBDBD"/>
<path d="M11.8281 9.80768H14.1358V13.5577H11.8281V9.80768Z" fill="#BDBDBD"/>
<path d="M13.2489 15.9779L14.0393 14.1346H11.9277L12.7181 15.9779C12.7403 16.0299 12.7773 16.0743 12.8244 16.1055C12.8716 16.1367 12.9269 16.1533 12.9835 16.1533C13.0401 16.1533 13.0954 16.1367 13.1426 16.1055C13.1897 16.0743 13.2267 16.0299 13.2489 15.9779Z" fill="#BDBDBD"/>
<path d="M14.1358 2.30769H14.4243V6.05769H15.0012V2.01923C15.0012 1.94272 14.9708 1.86935 14.9167 1.81526C14.8626 1.76116 14.7892 1.73077 14.7127 1.73077H14.1358V1.15384C14.1358 1.07734 14.1054 1.00397 14.0513 0.949872C13.9972 0.895775 13.9239 0.865384 13.8474 0.865384V0.288461C13.8474 0.211957 13.817 0.138585 13.7629 0.0844884C13.7088 0.0303914 13.6354 0 13.5589 0H12.405C12.3285 0 12.2552 0.0303914 12.2011 0.0844884C12.147 0.138585 12.1166 0.211957 12.1166 0.288461V0.865384C12.0401 0.865384 11.9667 0.895775 11.9126 0.949872C11.8585 1.00397 11.8281 1.07734 11.8281 1.15384V9.23076H14.1358V2.30769Z" fill="#BDBDBD"/>
</svg>
