<svg width="12" height="12" viewBox="0 0 12 12" fill="none" xmlns="http://www.w3.org/2000/svg">
<path d="M9.1875 6.46591H2.8125C2.29559 6.46591 1.875 6.04532 1.875 5.52841V4.59375C1.875 4.07684 2.29559 3.65625 2.8125 3.65625H9.1875C9.70441 3.65625 10.125 4.07684 10.125 4.59375V5.52841C10.125 6.04532 9.70441 6.46591 9.1875 6.46591ZM2.8125 4.59375C2.81204 4.59375 2.81195 4.59375 2.81195 4.59375L2.8125 5.52841H9.1875V4.59375H2.8125ZM10.125 2.32031C10.125 2.0614 9.91516 1.85156 9.65625 1.85156H2.34375C2.08484 1.85156 1.875 2.0614 1.875 2.32031C1.875 2.57922 2.08484 2.78906 2.34375 2.78906H9.65625C9.91516 2.78906 10.125 2.57922 10.125 2.32031ZM10.125 8.74219C10.125 8.48328 9.91516 8.27344 9.65625 8.27344H6.09375C5.83484 8.27344 5.625 8.48328 5.625 8.74219C5.625 9.0011 5.83484 9.21094 6.09375 9.21094H9.65625C9.91516 9.21094 10.125 9.0011 10.125 8.74219ZM3.75 10.1428H2.8125C2.29559 10.1428 1.875 9.72217 1.875 9.20526V8.2706C1.875 7.7536 2.29559 7.3331 2.8125 7.3331H3.75C4.26691 7.3331 4.6875 7.7536 4.6875 8.2706V9.20526C4.6875 9.72217 4.26691 10.1428 3.75 10.1428ZM2.8125 8.2706C2.81204 8.2706 2.81195 8.2706 2.81195 8.2706L2.8125 9.20526H3.75V8.2706H2.8125ZM12 10.125C12 9.86609 11.7902 9.65625 11.5312 9.65625C11.2723 9.65625 11.0625 9.86609 11.0625 10.125C11.0625 10.6419 10.6419 11.0625 10.125 11.0625H1.875C1.35809 11.0625 0.9375 10.6419 0.9375 10.125V1.875C0.9375 1.35809 1.35809 0.9375 1.875 0.9375H10.125C10.6419 0.9375 11.0625 1.35809 11.0625 1.875V7.78125C11.0625 8.04016 11.2723 8.25 11.5312 8.25C11.7902 8.25 12 8.04016 12 7.78125V1.875C12 0.841095 11.1589 0 10.125 0H1.875C0.841095 0 0 0.841095 0 1.875V10.125C0 11.1589 0.841095 12 1.875 12H10.125C11.1589 12 12 11.1589 12 10.125Z" fill="#4693F8"/>
</svg>
