<svg width="16" height="16" viewBox="0 0 16 16" fill="none" xmlns="http://www.w3.org/2000/svg">
<path d="M6.08387 1.81175H10.0996C10.5278 1.81175 10.7333 1.28316 10.4172 0.993963L9.46559 0.123373C9.2739 -0.0520315 8.97618 -0.0388236 8.80074 0.152926C8.6253 0.344675 8.63854 0.64237 8.83029 0.817774L8.88802 0.870575H6.08387C5.82398 0.870575 5.61328 1.08127 5.61328 1.34116C5.61328 1.60105 5.82398 1.81175 6.08387 1.81175Z" fill="#BDBDBD"/>
<path d="M10.0999 14.1883H6.08423C5.65596 14.1883 5.4505 14.7169 5.76658 15.0061L6.71821 15.8767C6.90989 16.052 7.20759 16.0389 7.38306 15.8471C7.55849 15.6554 7.54525 15.3577 7.3535 15.1823L7.29578 15.1295H10.0999C10.3598 15.1295 10.5705 14.9188 10.5705 14.6589C10.5705 14.399 10.3598 14.1883 10.0999 14.1883Z" fill="#BDBDBD"/>
<path d="M15.5294 3.1058H0.470589C0.210698 3.1058 0 3.3165 0 3.57639V12.4235C0 12.6834 0.210698 12.8941 0.470589 12.8941H15.5294C15.7893 12.8941 16 12.6834 16 12.4235V3.57639C16 3.3165 15.7893 3.1058 15.5294 3.1058ZM14.7414 9.86629C14.7414 10.1261 14.5305 10.3369 14.2708 10.3369C13.7949 10.3369 13.4077 10.724 13.4077 11.1999C13.4077 11.46 13.1969 11.6705 12.9371 11.6705H3.06291C2.80314 11.6705 2.59232 11.46 2.59232 11.1999C2.59232 10.724 2.20518 10.3369 1.72926 10.3369C1.46949 10.3369 1.25867 10.1261 1.25867 9.86629V6.13358C1.25867 5.87381 1.46949 5.66299 1.72926 5.66299C2.20518 5.66299 2.59232 5.27585 2.59232 4.79993C2.59232 4.53985 2.80314 4.32934 3.06291 4.32934H12.9371C13.1969 4.32934 13.4077 4.53985 13.4077 4.79993C13.4077 5.27585 13.7949 5.66299 14.2708 5.66299C14.5305 5.66299 14.7414 5.87381 14.7414 6.13358V9.86629Z" fill="#BDBDBD"/>
<path d="M12.528 5.27057H3.47075C3.30385 5.88767 2.81663 6.3752 2.19922 6.5421V9.45787C2.81663 9.62477 3.30385 10.1123 3.47075 10.7294H12.528C12.6949 10.1123 13.1821 9.62477 13.7996 9.45787V6.5421C13.1821 6.3752 12.6949 5.88767 12.528 5.27057ZM4.67013 8.37395C4.67013 8.63371 4.4593 8.84454 4.19954 8.84454C3.93946 8.84454 3.72895 8.63371 3.72895 8.37395V7.62602C3.72895 7.36626 3.93946 7.15544 4.19954 7.15544C4.4593 7.15544 4.67013 7.36626 4.67013 7.62602V8.37395ZM7.99939 9.5294C7.15609 9.5294 6.46997 8.84328 6.46997 7.99999C6.46997 7.15669 7.15609 6.47057 7.99939 6.47057C8.84269 6.47057 9.5288 7.15669 9.5288 7.99999C9.5288 8.84328 8.84269 9.5294 7.99939 9.5294ZM12.2698 8.37395C12.2698 8.63371 12.0593 8.84454 11.7992 8.84454C11.5395 8.84454 11.3287 8.63371 11.3287 8.37395V7.62602C11.3287 7.36626 11.5395 7.15544 11.7992 7.15544C12.0593 7.15544 12.2698 7.36626 12.2698 7.62602V8.37395Z" fill="#BDBDBD"/>
<path d="M7.99839 8.58825C8.32327 8.58825 8.58663 8.32488 8.58663 8.00001C8.58663 7.67514 8.32327 7.41177 7.99839 7.41177C7.67352 7.41177 7.41016 7.67514 7.41016 8.00001C7.41016 8.32488 7.67352 8.58825 7.99839 8.58825Z" fill="#BDBDBD"/>
</svg>
