<svg width="97" height="29" viewBox="0 0 97 29" fill="none" xmlns="http://www.w3.org/2000/svg">
<path d="M43.6931 11.9556C43.5136 10.5195 42.3916 9.80139 40.8207 9.80139C39.3397 9.80139 38.1279 10.5195 37.7239 11.9556H43.6931ZM37.6791 14.2222C37.8586 15.591 39.0479 16.5784 40.9779 16.5784C41.9876 16.5784 43.3116 16.1969 43.94 15.5461L45.6903 17.274C44.5234 18.4858 42.6159 19.0693 40.9329 19.0693C37.118 19.0693 34.8516 16.7129 34.8516 13.1674C34.8516 9.80139 37.1405 7.37785 40.731 7.37785C44.4336 7.37785 46.745 9.6667 46.3186 14.2222H37.6791Z" fill="#871DFB"/>
<path d="M50.6284 12.9654C50.6284 14.8953 52.1544 16.0173 53.9497 16.0173C55.7449 16.0173 57.2034 14.8728 57.2034 12.9654C57.2034 11.0804 55.7449 9.8911 53.9497 9.8911C52.1544 9.8911 50.6284 10.9009 50.6284 12.9654ZM58.0337 6.52498L60.0533 8.05088L58.6621 9.66664C59.627 10.8112 59.9413 11.821 59.9413 12.9654C59.9413 14.9402 59.0211 16.2866 57.2034 17.117C59.5596 17.9696 59.9413 19.6303 59.9413 20.7074C59.9413 23.849 56.8669 25.375 53.9047 25.375C50.0674 25.375 47.8234 23.4451 47.9356 20.281H50.6509C50.561 21.8294 52.1768 22.7046 53.9047 22.727C55.4307 22.727 57.0912 22.0762 57.0912 20.7074C57.0912 19.3834 56.0141 18.5306 53.9497 18.5306C50.2918 18.5306 47.8906 16.4213 47.8906 12.9654C47.8906 9.24033 50.8527 7.35528 53.9497 7.35528C54.8248 7.35528 56.0366 7.53481 56.7995 8.05088L58.0337 6.52498Z" fill="#871DFB"/>
<path d="M64.4506 13.2571C64.4506 14.9401 65.4605 16.5111 67.4576 16.5111C69.4547 16.5111 70.4647 14.9401 70.4647 13.2571C70.4647 11.5965 69.2977 9.98087 67.4576 9.98087C65.4828 9.98087 64.4506 11.5965 64.4506 13.2571ZM73.2248 13.2571C73.2248 16.4437 71.0481 19.0244 67.4576 19.0244C63.8671 19.0244 61.7129 16.4437 61.7129 13.2571C61.7129 10.093 63.9121 7.48988 67.4352 7.48988C70.9583 7.48988 73.2248 10.093 73.2248 13.2571Z" fill="#871DFB"/>
<path d="M78.0495 7.71437L78.2515 8.99339C79.1042 7.62451 80.2488 7.42256 81.3708 7.42256C82.5152 7.42256 83.6147 7.87139 84.2206 8.47732L82.9864 10.8559C82.4254 10.3848 81.9093 10.1379 81.0116 10.1379C79.5754 10.1379 78.2515 10.9009 78.2515 12.9429V18.7774H75.5137V7.71437H78.0495Z" fill="#871DFB"/>
<path d="M87.476 13.2347C87.476 15.3441 88.9347 16.6008 90.7524 16.6008C95.0609 16.6008 95.0609 9.89118 90.7524 9.89118C88.9347 9.89118 87.476 11.1254 87.476 13.2347ZM94.1185 7.71442H96.744V18.7775H94.1633L94.0286 17.1618C93.4003 18.4633 91.6724 19.0917 90.4382 19.1142C87.1619 19.1365 84.7383 17.117 84.7383 13.2347C84.7383 9.41985 87.274 7.42271 90.5056 7.44503C91.9867 7.44503 93.4003 8.14073 94.0286 9.24032L94.1185 7.71442Z" fill="#871DFB"/>
<path d="M2.72147 6.04166H14.5C19.1709 6.04166 22.9583 9.82915 22.9583 14.5001H18.125C18.125 12.4983 16.5018 10.875 14.5 10.875H0.456425C0.158495 12.0337 0 13.2487 0 14.5001C0 22.5086 6.49147 29 14.5 29C19.3521 29 23.6471 26.6183 26.2786 22.9584H14.5C9.82914 22.9584 6.04166 19.171 6.04166 14.5001H10.875C10.875 16.5019 12.4982 18.1251 14.5 18.1251H28.5436C28.8416 16.9663 29 15.7513 29 14.5001C29 6.49147 22.5086 1.90735e-06 14.5 1.90735e-06C9.64784 1.90735e-06 5.35298 2.38177 2.72147 6.04166Z" fill="url(#paint0_linear)"/>
<defs>
<linearGradient id="paint0_linear" x1="1.09761" y1="26.9064" x2="28.1614" y2="25.6825" gradientUnits="userSpaceOnUse">
<stop stop-color="#4693F8"/>
<stop offset="1" stop-color="#871DFB"/>
</linearGradient>
</defs>
</svg>
