<svg width="13" height="16" viewBox="0 0 13 16" fill="none" xmlns="http://www.w3.org/2000/svg">
<path d="M11.2125 0H1.7875C0.80145 0 0 0.822 0 1.83333V14.1667C0 15.178 0.80145 16 1.7875 16H11.2125C12.1985 16 13 15.178 13 14.1667V1.83333C13 0.822 12.1985 0 11.2125 0ZM5.6875 8.66667V5.384C7.2475 5.62733 8.45 7 8.45 8.66667C8.45 10.5047 6.99205 12 5.2 12C4.4798 12 3.82005 11.7507 3.28055 11.342L5.5445 9.02C5.63615 8.92667 5.6875 8.79933 5.6875 8.66667ZM4.7125 5.384V8.46L2.59155 10.6353C2.1931 10.082 1.95 9.40533 1.95 8.66667C1.95 7 3.1525 5.62733 4.7125 5.384ZM10.5625 14.1667H2.4375C2.1684 14.1667 1.95 13.9427 1.95 13.6667C1.95 13.3907 2.1684 13.1667 2.4375 13.1667H10.5625C10.8316 13.1667 11.05 13.3907 11.05 13.6667C11.05 13.9427 10.8316 14.1667 10.5625 14.1667ZM10.5625 12H9.5875C9.3184 12 9.1 11.776 9.1 11.5C9.1 11.224 9.3184 11 9.5875 11H10.5625C10.8316 11 11.05 11.224 11.05 11.5C11.05 11.776 10.8316 12 10.5625 12ZM10.5625 10.1667H9.5875C9.3184 10.1667 9.1 9.94267 9.1 9.66667C9.1 9.39067 9.3184 9.16667 9.5875 9.16667H10.5625C10.8316 9.16667 11.05 9.39067 11.05 9.66667C11.05 9.94267 10.8316 10.1667 10.5625 10.1667ZM10.5625 8.16667H9.5875C9.3184 8.16667 9.1 7.94267 9.1 7.66667C9.1 7.39067 9.3184 7.16667 9.5875 7.16667H10.5625C10.8316 7.16667 11.05 7.39067 11.05 7.66667C11.05 7.94267 10.8316 8.16667 10.5625 8.16667ZM10.5625 6.33333H9.5875C9.3184 6.33333 9.1 6.10933 9.1 5.83333C9.1 5.55733 9.3184 5.33333 9.5875 5.33333H10.5625C10.8316 5.33333 11.05 5.55733 11.05 5.83333C11.05 6.10933 10.8316 6.33333 10.5625 6.33333Z" fill="#BDBDBD"/>
</svg>
