<svg width="12" height="12" viewBox="0 0 12 12" fill="none" xmlns="http://www.w3.org/2000/svg">
<path d="M9.87089 7.58903V5.30903C9.87089 3.61549 8.78703 2.13872 7.29475 1.58711C7.31217 1.5 7.32184 1.41099 7.32184 1.32194C7.32187 0.59227 6.7296 0 5.99993 0C5.27026 0 4.67799 0.59227 4.67799 1.32194C4.67799 1.40905 4.68765 1.49613 4.70313 1.57935C4.19025 1.7613 3.71605 2.04967 3.31154 2.44064C2.54896 3.17613 2.12897 4.16515 2.12897 5.2258V7.58903C2.12897 7.67226 2.06122 7.74195 1.97605 7.74195C1.26186 7.74195 0.652172 8.28002 0.586364 8.96518C0.549581 9.34648 0.675411 9.72582 0.932824 10.0084C1.1883 10.2891 1.55412 10.4516 1.93539 10.4516H4.2696C4.36637 11.3207 5.10574 12 5.99993 12C6.89412 12 7.63349 11.3207 7.73026 10.4516H10.0645C10.4458 10.4516 10.8116 10.2891 11.067 10.0084C11.3225 9.72582 11.4483 9.34648 11.4135 8.96518C11.3477 8.28002 10.7361 7.74195 10.0238 7.74195C9.93863 7.74192 9.87089 7.67417 9.87089 7.58903ZM5.99993 0.774179C6.30185 0.774179 6.54766 1.01999 6.54766 1.32191C6.54766 1.34706 6.54378 1.3703 6.5399 1.39544C6.40828 1.37608 6.27473 1.36254 6.14117 1.35866C5.91085 1.3509 5.6844 1.36642 5.45989 1.39738C5.45601 1.37223 5.45213 1.349 5.45213 1.32385C5.4522 1.01999 5.69801 0.774179 5.99993 0.774179ZM5.99993 11.2258C5.53349 11.2258 5.14252 10.8929 5.05153 10.4516H6.94829C6.85737 10.8929 6.4664 11.2258 5.99993 11.2258ZM10.6432 9.03871C10.6586 9.20517 10.6064 9.36581 10.4961 9.48773C10.3819 9.60968 10.2309 9.6774 10.0645 9.6774H1.93542C1.76896 9.6774 1.61802 9.60965 1.50573 9.48773C1.39348 9.36581 1.34121 9.20514 1.3567 9.03871C1.38378 8.74646 1.65671 8.51613 1.97605 8.51613C2.48703 8.51613 2.90315 8.10001 2.90315 7.58903V5.2258C2.90315 4.37806 3.23991 3.58646 3.8496 2.99807C4.43218 2.43486 5.19091 2.12902 5.99993 2.12902C6.03865 2.12902 6.0754 2.12902 6.11412 2.13096C7.75734 2.18901 9.09671 3.61549 9.09671 5.30903V7.58903C9.09671 8.10001 9.51282 8.51613 10.0238 8.51613C10.3431 8.51613 10.6141 8.74646 10.6432 9.03871Z" fill="#758492"/>
</svg>
