<svg width="13" height="16" viewBox="0 0 13 16" fill="none" xmlns="http://www.w3.org/2000/svg">
<path d="M6.12574 6.73816C4.4765 6.73816 3.13477 8.07992 3.13477 9.72913C3.13477 11.3783 4.4765 12.7201 6.12574 12.7201C7.77497 12.7201 9.11671 11.3783 9.11671 9.72913C9.11671 8.07992 7.77494 6.73816 6.12574 6.73816ZM5.64261 11.4125L4.02334 9.81148L4.6825 9.14484L5.66745 10.1187L7.58197 8.36574L8.21507 9.05722L5.64261 11.4125Z" fill="#BDBDBD"/>
<path d="M9.53267 1.3173H7.60259L7.4968 0.994574C7.30177 0.399692 6.74998 0 6.12376 0C5.49753 0 4.94574 0.399692 4.75071 0.994574L4.64493 1.3173H2.71484V2.87766H9.53267V1.3173Z" fill="#BDBDBD"/>
<path d="M10.4715 2.07788V3.81506H1.77864V2.07788H0V15.9999H12.2501V2.07788H10.4715ZM6.12507 13.6575C3.95889 13.6575 2.19659 11.8951 2.19659 9.729C2.19659 7.56285 3.95889 5.80052 6.12507 5.80052C8.29125 5.80052 10.0535 7.56285 10.0535 9.729C10.0535 11.8951 8.29122 13.6575 6.12507 13.6575Z" fill="#BDBDBD"/>
</svg>
