<svg width="10" height="10" viewBox="0 0 10 10" fill="none" xmlns="http://www.w3.org/2000/svg">
<path fill-rule="evenodd" clip-rule="evenodd" d="M3.63639 7.27278C1.62807 7.27278 0 5.64471 0 3.63639C0 1.62807 1.62807 0 3.63639 0C5.64471 0 7.27278 1.62807 7.27278 3.63639C7.27278 4.41949 7.02524 5.14477 6.60414 5.73827L9.99908 9.13321L9.13206 10.0002L5.73693 6.60509C5.14368 7.02561 4.4189 7.27278 3.63639 7.27278ZM6.36338 3.6362C6.36338 5.14245 5.14233 6.3635 3.63609 6.3635C2.12985 6.3635 0.908799 5.14245 0.908799 3.6362C0.908799 2.12996 2.12985 0.908912 3.63609 0.908912C5.14233 0.908912 6.36338 2.12996 6.36338 3.6362Z" fill="#758492"/>
</svg>
