<svg width="16" height="16" viewBox="0 0 16 16" fill="none" xmlns="http://www.w3.org/2000/svg">
<path fill-rule="evenodd" clip-rule="evenodd" d="M12.8414 14.4712L14.454 12.8587L13.8861 10.7954L14.1335 10.2045L16.0007 9.15084V6.87046L14.1388 5.81243L13.8955 5.22255L14.4706 3.15822L12.8569 1.54686L10.7934 2.11463L10.2038 1.86741L9.15011 0H6.86973L5.8117 1.86194L5.22195 2.10516L3.15795 1.52939L1.54676 3.14057L2.11463 5.20437L1.86741 5.79397L0 6.84769V9.12742L1.86026 10.1878L2.10375 10.7782L1.52877 12.8422L3.14057 14.454L5.20437 13.8861L5.79404 14.1334L6.84778 16H9.12758L10.1872 14.1397L10.7775 13.8963L12.8414 14.4712ZM12.9851 9.18268L12.351 10.697L12.8277 12.4286L12.4143 12.842L10.6864 12.3607L9.17132 12.9855L8.28283 14.5454H7.69776L6.81663 12.9845L5.30394 12.3502L3.57143 12.827L3.15873 12.4143L3.64008 10.6863L3.0153 9.17143L1.45536 8.28224V7.69711L3.01696 6.81595L3.65124 5.30319L3.17453 3.57069L3.58637 3.15884L5.31427 3.64086L6.82982 3.01581L7.71696 1.45461H8.30143L9.18259 3.01621L10.6954 3.65049L12.4282 3.17369L12.8419 3.58683L12.3607 5.31439L12.9857 6.82981L14.5469 7.71695V8.30142L12.9851 9.18268ZM8.00149 10.9096C6.39477 10.9096 5.09226 9.60709 5.09226 8.00037C5.09226 6.39365 6.39477 5.09115 8.00149 5.09115C9.60821 5.09115 10.9107 6.39365 10.9107 8.00037C10.9107 9.60709 9.60821 10.9096 8.00149 10.9096ZM9.45387 8.00037C9.45387 8.80373 8.80262 9.45498 7.99926 9.45498C7.1959 9.45498 6.54464 8.80373 6.54464 8.00037C6.54464 7.19701 7.1959 6.54576 7.99926 6.54576C8.80262 6.54576 9.45387 7.19701 9.45387 8.00037Z" fill="#BDBDBD"/>
</svg>
