<svg width="17" height="16" viewBox="0 0 17 16" fill="none" xmlns="http://www.w3.org/2000/svg">
<path d="M14.9446 4.95911C14.7573 4.47277 14.373 4.09964 13.9038 3.91889C13.6361 3.22234 12.9644 2.75738 12.2177 2.75738H7.18632C7.06043 2.62499 6.93012 2.50968 6.79489 2.41138L6.18635 1.75931C5.67757 1.20481 5.09613 0.935303 4.40878 0.935303H1.80581C0.810077 0.935303 0 1.74538 0 2.74111V12.1118C0 12.8585 0.464956 13.5302 1.16148 13.7979C1.34219 14.2672 1.71529 14.6514 2.20172 14.8387C2.46182 15.517 3.1195 16 3.88819 16H14.3001C15.2958 16 16.1059 15.1899 16.1059 14.1942V6.64557C16.1059 5.87688 15.6229 5.21921 14.9446 4.95911ZM14.331 4.84054C14.3207 4.84038 14.3105 4.83976 14.3001 4.83976H9.20017L8.68397 4.28663H13.2589C13.69 4.28663 14.0872 4.49949 14.331 4.84054ZM13.2897 3.79919C13.2794 3.79903 13.2692 3.79857 13.2589 3.79857H8.31324C8.28721 3.79857 8.26219 3.80274 8.23866 3.81028C8.02782 3.58636 7.80462 3.41034 7.56658 3.28201C7.56762 3.26984 7.56798 3.25764 7.5672 3.24544H12.2177C12.6489 3.24544 13.0459 3.4582 13.2897 3.79919ZM0.488057 12.1118V2.74111C0.488057 2.01449 1.07919 1.42336 1.80581 1.42336H4.40878C4.91818 1.42336 5.34195 1.60498 5.73376 1.99315C5.64113 1.98245 5.5467 1.97649 5.44997 1.97649H2.847C1.85127 1.97649 1.04119 2.78657 1.04119 3.7823V13.153C1.04119 13.1633 1.04161 13.1736 1.04181 13.1838C0.700817 12.94 0.488057 12.543 0.488057 12.1118ZM1.52925 13.153V3.7823C1.52925 3.05568 2.12038 2.46455 2.847 2.46455H5.44997C5.82997 2.46455 6.16231 2.56548 6.46929 2.77782L6.702 3.02718C6.63273 3.02129 6.56264 3.01768 6.49116 3.01768H3.88819C2.89245 3.01768 2.08238 3.82776 2.08238 4.82349V14.1942C2.08238 14.2046 2.083 14.2148 2.08316 14.2252C1.7421 13.9813 1.52925 13.5843 1.52925 13.153Z" fill="url(#paint0_linear)"/>
<path d="M14.2987 7.96335H11.4354C11.3007 7.96335 11.1914 8.07258 11.1914 8.20738C11.1914 8.34218 11.3007 8.45141 11.4354 8.45141H14.2987C14.4335 8.45141 14.5427 8.34218 14.5427 8.20738C14.5427 8.07258 14.4335 7.96335 14.2987 7.96335Z" fill="url(#paint1_linear)"/>
<path d="M14.2987 9.00455H11.4354C11.3007 9.00455 11.1914 9.11377 11.1914 9.24858C11.1914 9.38338 11.3007 9.4926 11.4354 9.4926H14.2987C14.4335 9.4926 14.5427 9.38338 14.5427 9.24858C14.5427 9.11377 14.4335 9.00455 14.2987 9.00455Z" fill="url(#paint2_linear)"/>
<defs>
<linearGradient id="paint0_linear" x1="0.609585" y1="2.02286" x2="15.6358" y2="2.74935" gradientUnits="userSpaceOnUse">
<stop stop-color="#4693F8"/>
<stop offset="1" stop-color="#871DFB"/>
</linearGradient>
<linearGradient id="paint1_linear" x1="11.3182" y1="7.99858" x2="14.1766" y2="8.88618" gradientUnits="userSpaceOnUse">
<stop stop-color="#4693F8"/>
<stop offset="1" stop-color="#871DFB"/>
</linearGradient>
<linearGradient id="paint2_linear" x1="11.3182" y1="9.03978" x2="14.1766" y2="9.92737" gradientUnits="userSpaceOnUse">
<stop stop-color="#4693F8"/>
<stop offset="1" stop-color="#871DFB"/>
</linearGradient>
</defs>
</svg>
